<svg version="1.1" id="Layer_1" xmlns="http://www.w3.org/2000/svg" xmlns:xlink="http://www.w3.org/1999/xlink" x="0px" y="0px"
	 width="100%" viewBox="0 0 100 59" enable-background="new 0 0 100 59" xml:space="preserve">
<path fill="#030303" opacity="1.000000" stroke="none" 
	d="
M68.000000,60.000000 
	C45.333336,60.000000 23.166676,60.000000 1.000009,60.000000 
	C1.000006,40.333340 1.000006,20.666681 1.000003,1.000017 
	C34.333321,1.000011 67.666641,1.000011 100.999969,1.000006 
	C100.999985,20.666651 100.999985,40.333302 100.999992,59.999977 
	C90.166664,60.000000 79.333336,60.000000 68.000000,60.000000 
M31.162949,29.899660 
	C34.761475,27.265837 38.557034,24.857742 41.904251,21.936016 
	C45.395275,18.888762 46.130505,14.858792 43.906693,10.681336 
	C41.680470,6.499348 37.263657,4.020348 33.556576,6.176966 
	C26.362246,10.362313 20.026075,16.022783 12.685735,21.573792 
	C4.081239,25.304379 2.977655,33.261574 10.394646,38.981594 
	C16.565393,43.740501 22.858732,48.343735 29.170769,52.915127 
	C34.334888,56.655163 39.853592,56.008389 43.215412,51.439495 
	C46.449871,47.043694 45.491920,41.847317 40.632961,37.952309 
	C37.275330,35.260788 33.832180,32.675941 31.162949,29.899660 
M88.278839,39.605808 
	C97.113403,35.540234 98.130440,27.607780 90.487167,21.805092 
	C84.268005,17.083567 78.013000,12.404334 71.660995,7.864294 
	C66.798920,4.389165 61.151321,5.142432 57.925755,9.426519 
	C54.629150,13.804953 55.516182,19.126289 60.285423,22.994942 
	C63.632767,25.710205 67.069168,28.315680 69.741516,31.156916 
	C66.258224,33.722378 62.612434,36.097939 59.334145,38.902988 
	C55.526638,42.160862 54.959488,47.269997 57.541931,51.091846 
	C60.034603,54.780842 65.296715,56.923645 68.940224,54.516644 
	C75.519577,50.170147 81.536705,44.972595 88.278839,39.605808 
z"/>
<path fill="#33A451" opacity="1.000000" stroke="none" 
	d="
M70.465797,30.970182 
	C67.069168,28.315680 63.632767,25.710205 60.285423,22.994942 
	C55.516182,19.126289 54.629150,13.804953 57.925755,9.426519 
	C61.151321,5.142432 66.798920,4.389165 71.660995,7.864294 
	C78.013000,12.404334 84.268005,17.083567 90.487167,21.805092 
	C98.130440,27.607780 97.113403,35.540234 87.632019,39.911362 
	C79.555908,40.569805 75.827461,34.311108 70.465797,30.970182 
z"/>
<path fill="#4285F6" opacity="1.000000" stroke="none" 
	d="
M30.427246,30.043427 
	C33.832180,32.675941 37.275330,35.260788 40.632961,37.952309 
	C45.491920,41.847317 46.449871,47.043694 43.215412,51.439495 
	C39.853592,56.008389 34.334888,56.655163 29.170769,52.915127 
	C22.858732,48.343735 16.565393,43.740501 10.394646,38.981594 
	C2.977655,33.261574 4.081239,25.304379 13.331202,21.337242 
	C16.260416,21.851133 18.744396,22.254488 20.782709,23.430374 
	C24.148933,25.372318 27.227468,27.812956 30.427246,30.043427 
z"/>
<path fill="#E34234" opacity="1.000000" stroke="none" 
	d="
M30.795097,29.971544 
	C27.227468,27.812956 24.148933,25.372318 20.782709,23.430374 
	C18.744396,22.254488 16.260416,21.851133 13.655506,21.086380 
	C20.026075,16.022783 26.362246,10.362313 33.556576,6.176966 
	C37.263657,4.020348 41.680470,6.499348 43.906693,10.681336 
	C46.130505,14.858792 45.395275,18.888762 41.904251,21.936016 
	C38.557034,24.857742 34.761475,27.265837 30.795097,29.971544 
z"/>
<path fill="#F2A803" opacity="1.000000" stroke="none" 
	d="
M70.103653,31.063549 
	C75.827461,34.311108 79.555908,40.569805 87.386902,40.173683 
	C81.536705,44.972595 75.519577,50.170147 68.940224,54.516644 
	C65.296715,56.923645 60.034603,54.780842 57.541931,51.091846 
	C54.959488,47.269997 55.526638,42.160862 59.334145,38.902988 
	C62.612434,36.097939 66.258224,33.722378 70.103653,31.063549 
z"/>
</svg>