<svg width="70" height="46" viewBox="0 0 70 46" fill="none" xmlns="http://www.w3.org/2000/svg">
<path d="M44.5293 0.000427246C44.5741 -0.000410303 52.7636 -0.145681 61.3701 5.65961C61.3701 5.65961 69.9999 19.7276 70 37.0834C70 37.0834 64.9059 44.8994 51.6611 45.2768C51.6611 45.2768 49.503 42.9588 47.7051 40.9106C55.525 38.9242 58.5291 34.5313 58.5527 34.4965C56.0958 35.9517 53.7586 36.9755 51.6611 37.6762C48.6646 38.8081 45.7875 39.5634 42.9707 39.9946C37.2174 40.9647 31.943 40.6954 27.4482 39.9409C24.0323 39.348 21.0958 38.4849 18.6387 37.6225C17.2603 37.1374 15.7619 36.545 14.2637 35.7905C14.084 35.6827 13.9043 35.6286 13.7246 35.5209C13.6047 35.467 13.5443 35.4127 13.4844 35.3588C12.4174 34.8257 11.8195 34.4509 11.8066 34.4428C11.8313 34.4796 14.7163 38.7638 22.2949 40.8032C20.497 42.8514 18.2793 45.2768 18.2793 45.2768C5.03443 44.8995 0 37.0834 0 37.0834C7.78125e-05 19.7276 8.62988 5.65961 8.62988 5.65961C17.2364 -0.145717 25.426 -0.000408502 25.4707 0.000427246L26.0703 0.646912C15.2826 3.44973 10.3086 7.70844 10.3086 7.70844C10.3234 7.70117 11.6391 7.05599 13.8438 6.14496C20.256 3.61181 25.3504 2.91121 27.4482 2.74945C27.8078 2.69555 28.1082 2.64105 28.4678 2.64105C32.1234 2.2099 36.2584 2.10248 40.5732 2.53363C46.2667 3.12653 52.3804 4.63612 58.6133 7.70844C58.6133 7.70844 53.8785 3.66555 43.6904 0.862732L44.5293 0.000427246ZM25.4805 21.0825C22.0916 21.0826 19.4162 23.8576 19.416 27.2426C19.416 30.6278 22.1509 33.4026 25.4805 33.4028C28.8696 33.4028 31.5459 30.6279 31.5459 27.2426C31.6052 23.8575 28.8695 21.0825 25.4805 21.0825ZM47.1836 21.0825C43.7945 21.0825 41.1184 23.8575 41.1182 27.2426C41.1182 30.6279 43.8539 33.4028 47.1836 33.4028C50.5727 33.4026 53.248 30.6278 53.248 27.2426C53.2479 23.8576 50.5725 21.0826 47.1836 21.0825Z" fill="#EA4335"/>
</svg>
