<svg width="70" height="65" viewBox="0 0 70 65" fill="none" xmlns="http://www.w3.org/2000/svg">
<path d="M35.0003 0C15.6727 0 0 14.8221 0 33.1076C0 47.7356 10.0286 60.1459 23.9353 64.5237C25.6845 64.8302 26.3267 63.8055 26.3267 62.9311C26.3267 62.1416 26.2943 59.5335 26.2792 56.767C16.5421 58.7698 14.4874 52.8607 14.4874 52.8607C12.8953 49.0339 10.6013 48.0163 10.6013 48.0163C7.42571 45.9614 10.8407 46.0036 10.8407 46.0036C14.3553 46.2367 16.2059 49.4154 16.2059 49.4154C19.3276 54.4769 24.3938 53.0136 26.3911 52.1677C26.7052 50.0284 27.6123 48.5667 28.6132 47.7405C20.8392 46.9033 12.6669 44.0645 12.6669 31.3784C12.6669 27.7637 14.0342 24.8102 16.2732 22.4917C15.9097 21.6572 14.7117 18.2904 16.6122 13.73C16.6122 13.73 19.5513 12.8402 26.2398 17.1237C29.0317 16.3901 32.0258 16.0222 35.0003 16.0096C37.9747 16.0222 40.9712 16.3901 43.7683 17.1237C50.4487 12.8402 53.3837 13.73 53.3837 13.73C55.2888 18.2904 54.0902 21.6572 53.7268 22.4917C55.971 24.8102 57.329 27.7637 57.329 31.3784C57.329 44.0946 49.1411 46.8946 41.3474 47.7142C42.6028 48.7416 43.7214 50.7565 43.7214 53.8454C43.7214 58.2747 43.6808 61.84 43.6808 62.9311C43.6808 63.8121 44.3108 64.8445 46.0849 64.5194C59.9841 60.1366 70 47.7306 70 33.1076C70 14.8221 54.3296 0 35.0003 0Z" fill="#0F9D58"/>
</svg>
