<svg width="70" height="70" viewBox="0 0 70 70" fill="none" xmlns="http://www.w3.org/2000/svg">
<path d="M35 0C54.33 0 70 15.67 70 35C70 54.33 54.33 70 35 70C15.67 70 0 54.33 0 35C5.15408e-07 15.67 15.67 5.1544e-07 35 0ZM34.999 16.333C29.9319 16.333 29.2955 16.3557 27.3047 16.4463C25.3176 16.5373 23.9613 16.8519 22.7744 17.3135C21.5468 17.7902 20.5053 18.428 19.4678 19.4658C18.4294 20.5034 17.7908 21.5451 17.3125 22.7725C16.8498 23.9597 16.5348 25.3165 16.4453 27.3027C16.3563 29.2938 16.333 29.9306 16.333 35C16.333 40.0696 16.3561 40.7042 16.4463 42.6953C16.5377 44.6824 16.8523 46.0387 17.3135 47.2256C17.7906 48.4532 18.4281 49.4948 19.4658 50.5322C20.503 51.5705 21.5446 52.2107 22.7715 52.6875C23.9592 53.1491 25.3169 53.4637 27.3037 53.5547C29.2944 53.6453 29.9306 53.667 34.999 53.667C40.069 53.667 40.7042 53.6453 42.6953 53.5547C44.6821 53.4637 46.04 53.149 47.2275 52.6875C48.4549 52.2107 49.495 51.5706 50.5322 50.5322C51.5704 49.4948 52.2082 48.4537 52.6865 47.2266C53.1454 46.0393 53.4604 44.6818 53.5537 42.6953C53.6431 40.7044 53.667 40.0694 53.667 35C53.667 29.931 53.6431 29.2944 53.5537 27.3037C53.4604 25.3165 53.1454 23.9594 52.6865 22.7725C52.2082 21.5448 51.5705 20.5033 50.5322 19.4658C49.4939 18.4275 48.4555 17.7899 47.2266 17.3135C46.0366 16.8519 44.6795 16.5373 42.6924 16.4463C40.7017 16.3557 40.0673 16.333 34.999 16.333Z" fill="#FBBC04"/>
<path d="M33.3267 19.6974C33.8236 19.6967 34.3785 19.6974 35.0015 19.6974C39.9854 19.6974 40.5764 19.7154 42.5444 19.8049C44.3643 19.8881 45.3522 20.192 46.0103 20.4474C46.8814 20.7858 47.5028 21.1906 48.1558 21.8439C48.8089 22.4972 49.2132 23.1194 49.5522 23.9904C49.8077 24.6476 50.113 25.6353 50.1958 27.4553C50.2852 29.423 50.3042 30.0146 50.3042 34.9963C50.3042 39.9774 50.2852 40.5688 50.1958 42.5363C50.1126 44.3561 49.8077 45.3439 49.5522 46.0012C49.2139 46.8722 48.809 47.4928 48.1558 48.1457C47.5024 48.799 46.8818 49.2038 46.0103 49.5422C45.353 49.7988 44.3643 50.1025 42.5444 50.1857C40.5768 50.2752 39.9853 50.2941 35.0015 50.2941C30.0172 50.2941 29.4263 50.2752 27.4585 50.1857C25.6386 50.1017 24.651 49.7967 23.9927 49.5412C23.1217 49.2029 22.4994 48.7989 21.8462 48.1457C21.1929 47.4924 20.7878 46.8716 20.4487 46.0002C20.1932 45.343 19.889 44.3551 19.8062 42.5353C19.7167 40.5676 19.6987 39.9761 19.6987 34.9914C19.6987 30.0066 19.7167 29.4182 19.8062 27.4504C19.8894 25.6305 20.1932 24.6425 20.4487 23.9846C20.7871 23.1135 21.1929 22.4914 21.8462 21.8381C22.4995 21.1849 23.1216 20.7807 23.9927 20.4416C24.6507 20.1849 25.6386 19.8817 27.4585 19.798C29.1804 19.7203 29.848 19.6965 33.3267 19.6926V19.6974ZM34.5083 25.426C29.4435 25.6828 25.4155 29.8716 25.4155 35.0002C25.4155 40.2941 29.7076 44.5841 35.0015 44.5842C40.2955 44.5842 44.5864 40.2942 44.5864 35.0002C44.5864 29.7062 40.2954 25.4143 35.0015 25.4142L34.5083 25.426ZM44.9663 22.7971C43.7296 22.7971 42.7261 23.7992 42.7261 25.0363C42.7263 26.2728 43.7297 27.2756 44.9663 27.2756C46.2027 27.2753 47.2054 26.2727 47.2056 25.0363C47.2056 23.7998 46.2028 22.7963 44.9663 22.7961V22.7971Z" fill="#FBBC04"/>
<path d="M35.0016 28.7779C38.4378 28.7779 41.2239 31.5635 41.2239 35.0002C41.2239 38.4364 38.4378 41.2225 35.0016 41.2225C31.5649 41.2225 28.7793 38.4364 28.7793 35.0002C28.7793 31.5635 31.5649 28.7779 35.0016 28.7779Z" fill="#FBBC04"/>
</svg>
