<svg width="70" height="65" viewBox="0 0 70 65" fill="none" xmlns="http://www.w3.org/2000/svg">
<path d="M35 0C54.3299 0 69.9998 14.4567 70 32.29C70 50.1235 54.33 64.5811 35 64.5811C15.67 64.5811 0 50.1235 0 32.29C0.000164803 14.4567 15.6701 4.75532e-07 35 0ZM44.207 26.2275C39.9958 26.2275 38.1104 28.3623 37.0576 29.8594V26.7451H29.125C29.2294 28.8072 29.1252 48.685 29.125 48.7314H37.0576V36.4521C37.0576 35.7951 37.1087 35.1394 37.3184 34.6689C37.8917 33.3563 39.1975 31.9971 41.3887 31.9971C44.2596 31.9973 45.4071 34.0135 45.4072 36.9678V48.7305H53.3389V36.124C53.3387 29.3712 49.4262 26.2277 44.207 26.2275ZM16.8027 48.7305H24.7344V26.7441H16.8027V48.7305ZM20.8203 16.1455C18.1071 16.1457 16.333 17.7877 16.333 19.9434C16.3332 22.0543 18.0551 23.7432 20.7178 23.7432H20.7686C23.534 23.7431 25.2566 22.0542 25.2568 19.9434C25.2054 17.7876 23.5337 16.1455 20.8203 16.1455Z" fill="#4285F4"/>
</svg>
